# xmcd CD database file
#
# Track frame offsets:
#	150
#	29940
#	65250
#	100315
#	138040
#	165664
#	201113
#
# Disc length: 3128 seconds
#
# Revision: 0
# Processed by: cddbd v1.5.2PL0 Copyright (c) Steve Scherf et al.
# Submitted via: CDex 1.51
#
DISCID=5e0c3607
DTITLE=Éric Barret and Simon Goubert  - Linkage
DYEAR=1999
DGENRE=Jazz
TTITLE0=Mercury
TTITLE1=Rédemption
TTITLE2=Uranus
TTITLE3=Blessing In Disguise
TTITLE4=Travel With  Nothing But My Horn
TTITLE5=Cinq Minutes Plus tard
TTITLE6=Naïma
EXTD=YEAR: 1999
EXTT0=
EXTT1=
EXTT2=
EXTT3=
EXTT4=
EXTT5=
EXTT6=
PLAYORDER=
